<svg width="50" height="55" viewBox="0 0 50 55" fill="none" xmlns="http://www.w3.org/2000/svg">
<path d="M43.9961 52.4945C43.852 52.4854 43.7037 52.4773 43.5583 52.4688C43.8236 51.8354 43.4787 50.9451 42.8527 50.7774C41.0157 50.2845 39.1233 50.5396 37.2284 49.9193C34.1877 48.9239 31.3566 47.1057 28.7435 45.1376C23.582 41.2494 18.0697 34.0577 25.2075 28.957C26.052 28.3539 25.8067 26.5507 24.6557 26.6766C22.8644 26.8729 21.0702 26.9796 19.2736 27.092C20.2241 26.4989 20.9952 25.112 21.592 24.2913C22.797 22.6338 24.1816 21.9712 26.0881 21.8435C27.2837 21.7634 27.4607 20.0183 26.3635 19.5678C26.1565 19.4828 25.9557 19.133 25.761 18.9826C25.301 18.627 24.8298 18.3497 24.32 18.0935C23.8485 17.8565 23.3661 17.6494 22.8826 17.4449C25.2775 16.5181 26.7825 13.3191 29.6697 13.1783C30.7194 13.1272 31.1835 11.8031 30.4985 10.9391C29.7644 10.0132 29.2165 9.05141 28.609 8.13516C30.1132 8.05394 31.6142 8.13107 33.1184 8.39782C33.6298 8.48869 34.0652 7.6487 33.5037 7.37493C31.2532 6.27783 28.8053 6.15454 26.4099 5.75134C25.0386 5.52053 24.3409 7.29137 25.478 8.22544C26.3906 8.97515 26.9965 9.9735 27.6116 10.9774C26.6488 11.304 25.7529 11.8013 24.8658 12.5294C23.5663 13.5961 21.9572 14.7078 21.0104 16.1663C20.6989 16.6464 20.9579 17.3219 21.3926 17.5793C21.4111 17.7008 21.4667 17.8142 21.5779 17.8855C22.1663 18.2627 22.7657 18.6176 23.3551 18.9931C23.4778 19.0711 23.8984 19.3557 24.2947 19.649C22.8907 19.8789 21.6231 20.4645 20.4964 21.6419C19.898 22.2671 19.4034 23.0201 18.8635 23.7061C18.1743 24.582 17.3951 25.0837 17.2528 26.2973C17.1797 26.9211 17.7465 27.31 18.2091 27.3676C18.2902 27.3778 18.3665 27.3559 18.4456 27.3521C18.0749 27.7792 18.2315 28.6423 18.9254 28.6861C19.8265 28.7431 20.7269 28.7983 21.6267 28.8614C17.339 33.5224 19.7626 39.9943 24.3325 44.785C26.0058 46.5389 29.7814 49.7776 33.6807 51.9037C21.1607 50.9527 7.5723 48.1076 3.55865 33.3787C1.23113 24.8368 5.08815 15.5592 10.3499 9.51245C13.1246 6.32371 16.6777 4.21307 20.5306 3.23576C25.1222 2.07088 28.7406 4.40707 32.7464 6.41924C33.7611 6.92879 34.7635 5.64266 33.9587 4.66126C28.3261 -2.20708 18.6651 -0.60628 12.2884 3.81659C4.80021 9.01021 0.196849 18.8628 0.00419411 28.5821C-0.19577 38.6801 6.78341 47.5755 14.7684 51.2875C24.0957 55.6236 34.1221 55.2529 43.9961 54.6154C45.2165 54.5362 45.2178 52.5707 43.9961 52.4945Z" fill="#00B2A0"/>
<path d="M49.8096 48.5548C48.8862 46.1993 47.3165 44.1886 45.4915 42.4444C45.5096 38.3984 45.5544 34.351 45.5229 30.3053C45.5218 30.1618 45.5067 30.0286 45.4819 29.9038C45.6137 28.3825 45.5119 26.9003 45.2754 25.4158C45.2772 25.4146 45.2793 25.4129 45.2811 25.4117C46.1395 25.1523 46.8349 24.3751 47.5152 23.7671C48.0611 23.2792 48.6121 22.7842 49.1267 22.251C49.2311 22.1567 49.3295 22.0538 49.4256 21.9507C50.9143 20.3452 48.6555 17.827 47.163 19.4184C46.9401 19.656 46.702 19.8745 46.464 20.0919C46.3063 20.2356 46.146 20.3762 45.9865 20.517C45.9016 20.5915 45.8165 20.6657 45.7312 20.7396C45.962 20.5389 45.5372 20.9047 45.5404 20.9021C45.2033 21.1899 44.8329 21.4651 44.4868 21.7675C44.2445 20.836 43.938 19.8549 43.4739 19.0824C43.8548 18.8826 44.221 18.662 44.5481 18.4049C45.9079 17.337 47.0999 15.4887 46.4491 13.5414C46.0664 12.3964 45.3323 11.5827 44.4113 10.9493C44.2087 10.8099 43.9829 10.682 43.7605 10.5531C43.6287 10.2945 43.4817 10.0439 43.2982 9.81392C43.2102 9.70348 43.1212 9.61905 43.0327 9.52847C43.0666 9.2252 42.9045 8.89622 42.5639 8.91112C42.4211 8.91725 42.2811 8.91433 42.1404 8.91316C41.7778 8.78081 41.4184 8.78023 41.067 8.87693C39.9296 8.82347 38.8611 8.83895 37.8621 9.83876C37.1928 10.5084 36.8967 11.3706 36.8897 12.2942C35.9522 14.7794 35.6985 17.8436 38.0968 19.2721C38.487 19.5046 38.9105 19.6469 39.3443 19.7451C39.0945 20.6964 38.9063 21.6547 38.7564 22.6209C37.198 23.0051 35.5813 23.9965 34.2656 24.5969C32.3346 25.27 33.1379 28.6101 35.103 27.9966C36.2143 27.6495 37.282 27.1478 38.3536 26.6721C38.3051 27.6045 38.2779 28.5473 38.2672 29.5036C38.2649 29.7119 38.3197 29.9439 38.4038 30.1633C38.126 31.1158 37.8389 32.1965 37.6517 33.2582C37.4026 34.2271 37.1494 35.195 36.8764 36.1563C34.2358 34.5418 30.7477 32.8562 28.4812 34.5304C28.4747 34.5204 28.4671 34.5111 28.4604 34.5011C27.6354 33.2726 25.9089 34.3089 26.5821 35.7303C30.8103 44.659 39.1974 49.6659 47.8277 51.4406C49.4271 51.769 50.4424 50.1688 49.8096 48.5548ZM30.9286 37.7045C31.2246 37.7775 31.5337 37.8886 31.8373 37.9823C31.7997 38.2435 31.8357 38.5164 31.9621 38.754C31.9905 38.8071 32.0271 38.8551 32.0563 38.9074C31.6749 38.5161 31.2948 38.1229 30.9286 37.7045ZM39.5994 37.9102C39.6845 37.8497 39.7657 37.7746 39.838 37.677C40.3807 36.9475 40.5091 36.1107 40.6169 35.2263C41.0994 34.0924 41.5197 32.9351 41.8713 31.755C42.0681 31.7851 42.2697 31.8021 42.4694 31.8243C42.46 34.5248 42.4701 37.2253 42.4869 39.9262C41.522 39.2042 40.5446 38.5343 39.5994 37.9102Z" fill="#00B2A0"/>
</svg>
